<svg xmlns="http://www.w3.org/2000/svg" version="1.1" xmlns:xlink="http://www.w3.org/1999/xlink" viewBox="0 0 29.943966613118903 9.503659309182604"><g transform="matrix(1,0,0,1,8.544488540996614,2.876916834591302)"><g clip-path="url(#SvgjsClipPath1001)"><g clip-path="url(#SvgjsClipPath1000e73dce01-6dda-4968-96ae-78fdd2da89fd)"><path d=" M -3.6141032492138008 4.6752134648389445 C -1.9517003948751976 4.6752134648389445 -0.6040684320172796 3.3181499102768197 -0.6040684320172796 1.6437031168914782 C -0.6040684320172796 -0.030743676493863586 -1.9517003948751976 -1.3878411576448524 -3.6141032492138008 -1.3878411576448524 C -5.2765061035524035 -1.3878411576448524 -6.624138066410322 -0.030574043549543434 -6.624138066410322 1.6437031168914782 C -6.624138066410322 3.3179802773325 -5.27647217696354 4.6752134648389445 -3.6141032492138008 4.6752134648389445 Z M -3.6141032492138008 4.777977102508162 C -1.8953483307720052 4.777977102508162 -0.5020511793030709 3.3747055339131964 -0.5020511793030709 1.6437031168914782 C -0.5020511793030709 -0.08729930013024034 -1.8953483307720052 -1.4906047953140693 -3.6141032492138008 -1.4906047953140693 C -5.332858167655596 -1.4906047953140693 -6.72615531912453 -0.08733322671910432 -6.72615531912453 1.6437031168914782 C -6.72615531912453 3.3747394605020604 -5.332926020833324 4.777977102508162 -3.6141032492138008 4.777977102508162 Z" fill="#d56a34" transform="matrix(1,0,0,1,0,0)" fill-rule="evenodd"></path></g><g clip-path="url(#SvgjsClipPath1000e73dce01-6dda-4968-96ae-78fdd2da89fd)"><path d=" M -4.073265702899896 4.777977102508162 C -2.4108628485612935 4.777977102508162 -1.0632308857033745 3.420913547946036 -1.0632308857033745 1.746466754560695 C -1.0632308857033745 0.07201996117535306 -2.410862848561292 -1.2850775199756355 -4.073265702899896 -1.2850775199756355 C -5.735668557238499 -1.2850775199756355 -7.0832665935075525 0.07218959411967353 -7.0832665935075525 1.746466754560695 C -7.0832665935075525 3.4207439150017165 -5.735634630649635 4.777977102508162 -4.073265702899896 4.777977102508162 Z M -4.073265702899896 4.8807407401773775 C -2.354510784458101 4.8807407401773775 -0.9611797064003031 3.4774691715824133 -0.9611797064003031 1.746466754560695 C -0.9611797064003031 0.015464337538976636 -2.354510784458101 -1.3878411576448524 -4.073265702899896 -1.3878411576448524 C -5.79202062134169 -1.3878411576448524 -7.185317772810624 0.01543041095011266 -7.185317772810624 1.746466754560695 C -7.185317772810624 3.477503098171278 -5.7919866947528265 4.880808593355107 -4.073265702899896 4.880808593355107 Z" fill="#d56a34" transform="matrix(1,0,0,1,0,0)" fill-rule="evenodd"></path></g><g clip-path="url(#SvgjsClipPath1000e73dce01-6dda-4968-96ae-78fdd2da89fd)"><path d=" M -3.5120520699107285 5.137666797644853 C -1.8496492155721258 5.137666797644853 -0.5020511793030709 3.7803996835495437 -0.5020511793030709 2.1061225231085228 C -0.5020511793030709 0.43184536266750134 -1.8496831421609894 -0.9253878248389444 -3.5120520699107285 -0.9253878248389444 C -5.1744209976604685 -0.9253878248389444 -6.52208688710725 0.43187928925636443 -6.52208688710725 2.106122523108522 C -6.52208688710725 3.7803657569606792 -5.174454924249332 5.137666797644853 -3.5120520699107285 5.137666797644853 Z M -3.5120520699107285 5.24043043531407 C -1.7933310780577987 5.24043043531407 -0.40000000000000036 3.837158866719104 -0.40000000000000036 2.106122523108522 C -0.40000000000000036 0.37508617949793926 -1.7933310780577973 -1.0281853890970254 -3.5120520699107285 -1.0281853890970254 C -5.23077306176366 -1.0281853890970254 -6.624138066410322 0.37512010608680385 -6.624138066410322 2.106122523108522 C -6.624138066410322 3.8371249401302405 -5.2308069883525246 5.24043043531407 -3.5120520699107285 5.24043043531407 Z" fill="#d56a34" transform="matrix(1,0,0,1,0,0)" fill-rule="evenodd"></path></g><path d=" M -3.859948586134492 3.5712422632026555 C -4.002972441149618 3.5712422632026555 -4.146827830205529 3.552948514305372 -4.291514753302226 3.516361016510805 C -4.436201676398923 3.4797735187162377 -4.566752520802265 3.423229203942816 -4.683167286512251 3.346728072190539 C -4.77629909908024 3.283531485090833 -4.8536317648733025 3.214514159705627 -4.915165283891438 3.139676096034921 C -4.976698802909573 3.0648380323642157 -5.007465562418641 2.98251616232644 -5.007465562418641 2.8927104859215933 C -5.007465562418641 2.8062309456798893 -4.9916664156437145 2.75301276706961 -4.960068122093861 2.7330559500907547 C -4.928469828544008 2.7130991331119003 -4.879409320137657 2.703120724622473 -4.812886596874807 2.703120724622473 L -4.4835991167237035 2.703120724622473 L -4.433707074276566 2.75301276706961 L -4.433707074276566 2.9276349156345893 C -4.433707074276566 3.06400649832343 -4.3871411679925725 3.1654536512992753 -4.294009355424583 3.2319763745621244 C -4.2008775428565945 3.298499097824974 -4.076147436738752 3.3317604594563983 -3.919819037071056 3.3317604594563983 C -3.733555411935078 3.3317604594563983 -3.5921946250015235 3.268563872356692 -3.495736676270392 3.1421706981572783 C -3.3992787275392606 3.0157775239578646 -3.3510497531736947 2.8561229881270265 -3.3510497531736947 2.6632070906647636 C -3.3510497531736947 2.430377559244791 -3.4100886700694737 2.250766206435098 -3.5281665038610313 2.1243730322356846 C -3.646244337652589 1.9979798580362709 -3.848307109563493 1.934783270936564 -4.134354819593745 1.934783270936564 L -4.398782644563571 1.934783270936564 L -4.398782644563571 1.6953014671903068 L -4.149322432327886 1.6953014671903068 C -3.9497542625393383 1.6953014671903068 -3.795088930953214 1.6262841418051008 -3.6853264375695125 1.4882494910346886 C -3.575563944185811 1.3502148402642764 -3.5206826974939602 1.1814134299847963 -3.5206826974939602 0.9818452601962484 C -3.5206826974939602 0.6026657375980076 -3.662043484427515 0.41307597629888726 -3.9447650582946245 0.41307597629888726 C -4.061179824004611 0.41307597629888726 -4.160132374858099 0.45215807621581117 -4.24162271085509 0.5303222760496591 C -4.32311304685208 0.6084864758835069 -4.363858214850575 0.7207435713895651 -4.363858214850575 0.8670935625678337 L -4.363858214850575 1.086618549335236 L -4.403771848808285 1.1315213875376595 L -4.738048533204102 1.1315213875376595 C -4.8012451203038085 1.1315213875376595 -4.849474094669374 1.1207114450074465 -4.882735456300799 1.0990915599470203 C -4.915996817932224 1.0774716748865942 -4.932627498747936 1.0234219622355294 -4.932627498747936 0.9369424219938254 C -4.932627498747936 0.7473526606947051 -4.822865005364235 0.5843719887007244 -4.603340018596832 0.4480004060118833 C -4.460316163581706 0.35486859344389426 -4.3281022510967935 0.2866828020994737 -4.206698281142094 0.24344303197862166 C -4.085294311187393 0.20020326185776957 -3.9364497178867683 0.17858337679734354 -3.760164501240218 0.17858337679734354 C -3.567248603777955 0.17858337679734354 -3.3934579892537617 0.21018167034719692 -3.238792657667637 0.2733782574469037 C -3.0841273260815125 0.33657484454661046 -2.961891822086027 0.42638052095145706 -2.8720861456811804 0.5427952866614434 C -2.782280469276334 0.6592100523714298 -2.7373776310739104 0.7989077712234133 -2.7373776310739104 0.9618884432173938 C -2.7373776310739104 1.0949338897430922 -2.776459730990834 1.2130117235346496 -2.8546239308246824 1.316121944592066 C -2.93278813065853 1.4192321656494824 -3.037561419797518 1.5057117058911864 -3.1689437982416453 1.575560565317178 C -3.3003261766857728 1.6454094247431699 -3.449170769986398 1.6953014671903066 -3.615477578143521 1.725236692658589 C -3.2828639618292748 1.7651503266162987 -3.024256875144948 1.8574506051435018 -2.839656318090541 2.002137528240199 C -2.6550557610361345 2.1468244513368964 -2.562755482508931 2.3505502913293723 -2.562755482508931 2.613315048217627 C -2.562755482508931 2.7995786733536043 -2.6234574674862814 2.9650539474699418 -2.7448614374409814 3.109740870566639 C -2.866265407395681 3.254427793663336 -3.0250884091857335 3.36751642321018 -3.221330442811139 3.4490067592071703 C -3.4175724764365443 3.5304970952041606 -3.630445190877662 3.5712422632026555 -3.859948586134492 3.5712422632026555" fill="#d56a34" transform="matrix(1,0,0,1,0,0)" fill-rule="nonzero"></path></g><g><path d=" M 0.5139360000000001 1.56864 Q 0.4169280000000001 1.56864 0.33643200000000006 1.545936 Q 0.25593600000000005 1.5232320000000001 0.18988800000000003 1.4736960000000001 Q 0.13209600000000002 1.432416 0.10113600000000002 1.389072 Q 0.07017600000000002 1.345728 0.07017600000000002 1.298256 Q 0.07017600000000002 1.250784 0.08875200000000001 1.2394319999999999 Q 0.10732800000000002 1.22808 0.146544 1.22808 L 0.24974400000000005 1.22808 L 0.26625600000000005 1.244592 L 0.26625600000000005 1.312704 Q 0.26625600000000005 1.38288 0.32611200000000007 1.428288 Q 0.38596800000000003 1.4736960000000001 0.5118720000000001 1.4736960000000001 Q 0.6398400000000001 1.4736960000000001 0.7089840000000001 1.395264 Q 0.7781280000000002 1.316832 0.7781280000000002 1.192992 Q 0.7781280000000002 1.05264 0.7027920000000001 0.971112 Q 0.6274560000000001 0.8895839999999999 0.4396320000000001 0.8895839999999999 L 0.31992000000000004 0.8895839999999999 L 0.31992000000000004 0.796704 L 0.38803200000000004 0.796704 Q 0.5283840000000001 0.796704 0.618168 0.7172399999999999 Q 0.7079520000000001 0.6377759999999999 0.7079520000000001 0.5036159999999998 Q 0.7079520000000001 0.375648 0.6532560000000001 0.3178559999999999 Q 0.5985600000000001 0.26006399999999985 0.4994880000000001 0.26006399999999985 Q 0.41486400000000007 0.26006399999999985 0.36016800000000004 0.3095999999999999 Q 0.305472 0.3591359999999999 0.305472 0.44375999999999993 L 0.305472 0.522192 L 0.28896000000000005 0.5387039999999998 L 0.18988800000000003 0.5387039999999998 Q 0.14860800000000002 0.5387039999999998 0.12900000000000003 0.5263199999999999 Q 0.10939200000000002 0.513936 0.10939200000000002 0.4643999999999999 Q 0.10939200000000002 0.410736 0.14551200000000003 0.3560399999999999 Q 0.18163200000000002 0.30134399999999983 0.25387200000000004 0.2579999999999998 Q 0.328176 0.21052799999999983 0.3942240000000001 0.18782399999999977 Q 0.46027200000000007 0.16511999999999993 0.5531520000000001 0.16511999999999993 Q 0.6625440000000001 0.16511999999999993 0.7492320000000001 0.20743199999999984 Q 0.8359200000000001 0.24974399999999997 0.8864880000000002 0.32301599999999997 Q 0.9370560000000001 0.396288 0.9370560000000001 0.4912319999999999 Q 0.9370560000000001 0.6006239999999999 0.8503680000000001 0.6873119999999999 Q 0.7636800000000001 0.7739999999999999 0.6192000000000001 0.8090879999999999 Q 0.8132160000000002 0.8359199999999999 0.9112560000000002 0.9339599999999999 Q 1.0092960000000002 1.032 1.0092960000000002 1.182672 Q 1.0092960000000002 1.287936 0.9411840000000001 1.375656 Q 0.8730720000000001 1.463376 0.7605840000000001 1.516008 Q 0.6480960000000001 1.56864 0.5139360000000001 1.56864 M 1.5727206328125 1.56864 Q 1.4757126328125003 1.56864 1.3952166328125002 1.545936 Q 1.3147206328125 1.5232320000000001 1.2486726328125002 1.4736960000000001 Q 1.1908806328125001 1.432416 1.1599206328125002 1.389072 Q 1.1289606328125001 1.345728 1.1289606328125001 1.298256 Q 1.1289606328125001 1.250784 1.1475366328125 1.2394319999999999 Q 1.1661126328125002 1.22808 1.2053286328125001 1.22808 L 1.3085286328125 1.22808 L 1.3250406328125002 1.244592 L 1.3250406328125002 1.312704 Q 1.3250406328125002 1.38288 1.3848966328125 1.428288 Q 1.4447526328125002 1.4736960000000001 1.5706566328125002 1.4736960000000001 Q 1.6986246328125003 1.4736960000000001 1.7677686328125002 1.395264 Q 1.8369126328125003 1.316832 1.8369126328125003 1.192992 Q 1.8369126328125003 1.05264 1.7615766328125002 0.971112 Q 1.6862406328125004 0.8895839999999999 1.4984166328125001 0.8895839999999999 L 1.3787046328125 0.8895839999999999 L 1.3787046328125 0.796704 L 1.4468166328125003 0.796704 Q 1.5871686328125003 0.796704 1.6769526328125002 0.7172399999999999 Q 1.7667366328125003 0.6377759999999999 1.7667366328125003 0.5036159999999998 Q 1.7667366328125003 0.375648 1.7120406328125002 0.3178559999999999 Q 1.6573446328125003 0.26006399999999985 1.5582726328125003 0.26006399999999985 Q 1.4736486328125002 0.26006399999999985 1.4189526328125002 0.3095999999999999 Q 1.3642566328125 0.3591359999999999 1.3642566328125 0.44375999999999993 L 1.3642566328125 0.522192 L 1.3477446328125002 0.5387039999999998 L 1.2486726328125002 0.5387039999999998 Q 1.2073926328125002 0.5387039999999998 1.1877846328125001 0.5263199999999999 Q 1.1681766328125 0.513936 1.1681766328125 0.4643999999999999 Q 1.1681766328125 0.410736 1.2042966328125002 0.3560399999999999 Q 1.2404166328125001 0.30134399999999983 1.3126566328125002 0.2579999999999998 Q 1.3869606328125001 0.21052799999999983 1.4530086328125003 0.18782399999999977 Q 1.5190566328125001 0.16511999999999993 1.6119366328125002 0.16511999999999993 Q 1.7213286328125004 0.16511999999999993 1.8080166328125002 0.20743199999999984 Q 1.8947046328125001 0.24974399999999997 1.9452726328125003 0.32301599999999997 Q 1.9958406328125002 0.396288 1.9958406328125002 0.4912319999999999 Q 1.9958406328125002 0.6006239999999999 1.9091526328125004 0.6873119999999999 Q 1.8224646328125003 0.7739999999999999 1.6779846328125 0.8090879999999999 Q 1.8720006328125003 0.8359199999999999 1.9700406328125002 0.9339599999999999 Q 2.0680806328125003 1.032 2.0680806328125003 1.182672 Q 2.0680806328125003 1.287936 1.9999686328125001 1.375656 Q 1.9318566328125002 1.463376 1.8193686328125003 1.516008 Q 1.7068806328125001 1.56864 1.5727206328125 1.56864 M 2.6315052656250004 1.56864 Q 2.534497265625 1.56864 2.454001265625 1.545936 Q 2.3735052656250004 1.5232320000000001 2.307457265625 1.4736960000000001 Q 2.2496652656250005 1.432416 2.218705265625 1.389072 Q 2.1877452656250003 1.345728 2.1877452656250003 1.298256 Q 2.1877452656250003 1.250784 2.206321265625 1.2394319999999999 Q 2.224897265625 1.22808 2.2641132656250003 1.22808 L 2.3673132656250004 1.22808 L 2.383825265625 1.244592 L 2.383825265625 1.312704 Q 2.383825265625 1.38288 2.4436812656250004 1.428288 Q 2.5035372656250003 1.4736960000000001 2.629441265625 1.4736960000000001 Q 2.757409265625 1.4736960000000001 2.8265532656250003 1.395264 Q 2.8956972656250004 1.316832 2.8956972656250004 1.192992 Q 2.8956972656250004 1.05264 2.8203612656250003 0.971112 Q 2.7450252656250003 0.8895839999999999 2.5572012656250003 0.8895839999999999 L 2.4374892656250005 0.8895839999999999 L 2.4374892656250005 0.796704 L 2.505601265625 0.796704 Q 2.645953265625 0.796704 2.7357372656250005 0.7172399999999999 Q 2.8255212656250004 0.6377759999999999 2.8255212656250004 0.5036159999999998 Q 2.8255212656250004 0.375648 2.7708252656250005 0.3178559999999999 Q 2.7161292656250002 0.26006399999999985 2.617057265625 0.26006399999999985 Q 2.5324332656250004 0.26006399999999985 2.4777372656250005 0.3095999999999999 Q 2.423041265625 0.3591359999999999 2.423041265625 0.44375999999999993 L 2.423041265625 0.522192 L 2.406529265625 0.5387039999999998 L 2.307457265625 0.5387039999999998 Q 2.266177265625 0.5387039999999998 2.2465692656250003 0.5263199999999999 Q 2.2269612656250004 0.513936 2.2269612656250004 0.4643999999999999 Q 2.2269612656250004 0.410736 2.2630812656250003 0.3560399999999999 Q 2.2992012656250003 0.30134399999999983 2.371441265625 0.2579999999999998 Q 2.4457452656250003 0.21052799999999983 2.511793265625 0.18782399999999977 Q 2.5778412656250005 0.16511999999999993 2.6707212656250006 0.16511999999999993 Q 2.7801132656250003 0.16511999999999993 2.8668012656250004 0.20743199999999984 Q 2.9534892656250005 0.24974399999999997 3.0040572656250006 0.32301599999999997 Q 3.0546252656250004 0.396288 3.0546252656250004 0.4912319999999999 Q 3.0546252656250004 0.6006239999999999 2.9679372656250003 0.6873119999999999 Q 2.8812492656250006 0.7739999999999999 2.7367692656250004 0.8090879999999999 Q 2.9307852656250004 0.8359199999999999 3.0288252656250005 0.9339599999999999 Q 3.1268652656250007 1.032 3.1268652656250007 1.182672 Q 3.1268652656250007 1.287936 3.0587532656250005 1.375656 Q 2.9906412656250003 1.463376 2.8781532656250004 1.516008 Q 2.7656652656250005 1.56864 2.6315052656250004 1.56864 M 3.7253778984375003 1.56864 Q 3.5953458984375004 1.56864 3.5034978984375003 1.5438720000000001 Q 3.4116498984375 1.519104 3.3146418984375003 1.471632 L 3.2940018984375 1.131072 L 3.3270258984375003 1.131072 L 3.4364178984375 1.356048 Q 3.5086578984375003 1.415904 3.5788338984375003 1.442736 Q 3.6490098984375003 1.469568 3.7191858984375004 1.469568 Q 3.8388978984375 1.469568 3.9080418984375003 1.407648 Q 3.9771858984375004 1.345728 3.9771858984375004 1.2384 Q 3.9771858984375004 1.153776 3.9390018984375 1.103208 Q 3.9008178984375004 1.05264 3.8254818984375003 1.012392 Q 3.7501458984375002 0.972144 3.6407538984375 0.91848 Q 3.4942098984375 0.848304 3.4157778984375002 0.7709039999999999 Q 3.3373458984375004 0.6935039999999999 3.3373458984375004 0.5531519999999999 Q 3.3373458984375004 0.47884799999999994 3.3734658984375003 0.40970399999999985 Q 3.4095858984375003 0.34056 3.4715058984375 0.2858639999999999 Q 3.5334258984375 0.23116799999999982 3.6097938984375 0.19814399999999988 Q 3.6861618984375 0.16511999999999993 3.7687218984375 0.16511999999999993 Q 3.8657298984375004 0.16511999999999993 3.9503538984375 0.18782399999999977 Q 4.0349778984375 0.21052799999999983 4.1175378984375 0.2538719999999999 L 4.1381778984375 0.5841119999999999 L 4.1051538984375 0.5841119999999999 L 3.9978258984375 0.3632639999999998 Q 3.9317778984375003 0.31166399999999994 3.8781138984375003 0.2889599999999999 Q 3.8244498984375004 0.2662559999999998 3.7563378984375 0.2662559999999998 Q 3.6675858984375003 0.2662559999999998 3.6087618984375003 0.32611199999999996 Q 3.5499378984375003 0.38596799999999987 3.5499378984375003 0.4767839999999999 Q 3.5499378984375003 0.5779199999999999 3.6128898984375004 0.6357119999999999 Q 3.6758418984375 0.6935039999999999 3.8161938984375 0.7595519999999999 Q 3.9400338984375 0.8194079999999999 4.021561898437501 0.874104 Q 4.1030898984375 0.9288 4.142305898437501 0.9969119999999999 Q 4.1815218984375 1.065024 4.1815218984375 1.170288 Q 4.1815218984375 1.267296 4.1402418984375 1.3416000000000001 Q 4.0989618984375005 1.415904 4.0308498984375 1.466472 Q 3.9627378984375 1.51704 3.8832738984375004 1.54284 Q 3.8038098984375 1.56864 3.7253778984375003 1.56864 M 4.5014368593750005 2.045424 Q 4.4539648593750005 2.045424 4.442612859375 2.0320080000000003 Q 4.4312608593750005 2.018592 4.4312608593750005 1.9855680000000002 L 4.4312608593750005 1.8741120000000002 L 4.439516859375 1.8637920000000001 L 4.534460859375 1.8637920000000001 Q 4.586060859375 1.8637920000000001 4.614956859375 1.855536 Q 4.643852859375 1.84728 4.668620859375 1.81116 Q 4.693388859375 1.7750400000000002 4.730540859375 1.6904160000000001 L 4.798652859375 1.535616 L 4.412684859375 0.7120799999999999 L 4.276460859375 0.65016 L 4.276460859375 0.6171359999999999 L 4.788332859375 0.6171359999999999 L 4.788332859375 0.65016 L 4.627340859375 0.7120799999999999 L 4.627340859375 0.7223999999999999 L 4.891532859375 1.2920639999999999 L 4.8997888593750005 1.2920639999999999 L 5.116508859375 0.7327199999999999 L 5.116508859375 0.7223999999999999 L 4.9699648593750005 0.65016 L 4.9699648593750005 0.6171359999999999 L 5.372444859375 0.6171359999999999 L 5.372444859375 0.65016 L 5.219708859375 0.7182719999999999 L 4.811036859375 1.7110560000000001 Q 4.792460859375 1.758528 4.779044859375 1.7905200000000001 Q 4.765628859375 1.8225120000000001 4.749116859375 1.85244 Q 4.732604859375 1.882368 4.701644859375 1.925712 Q 4.660364859375 1.9855680000000002 4.6067008593750005 2.015496 Q 4.553036859375 2.045424 4.5014368593750005 2.045424 M 5.4137137734375 1.548 L 5.4137137734375 1.514976 L 5.5458097734375 1.448928 L 5.5458097734375 0.831792 L 5.4199057734375 0.7285919999999999 L 5.4199057734375 0.7120799999999999 L 5.7047377734375 0.5964959999999999 L 5.7191857734375 0.5964959999999999 L 5.7377617734375 0.7492319999999999 L 5.7480817734375 0.7492319999999999 Q 5.8265137734375 0.6728639999999999 5.8987537734375 0.6346799999999999 Q 5.9709937734375 0.5964959999999999 6.0618097734375 0.5964959999999999 Q 6.1815217734375 0.5964959999999999 6.2609857734375005 0.657384 Q 6.3404497734375 0.7182719999999999 6.3404497734375 0.8400479999999999 L 6.3404497734375 1.448928 L 6.4704817734375 1.514976 L 6.4704817734375 1.548 L 6.0081457734375 1.548 L 6.0081457734375 1.514976 L 6.1443697734375 1.448928 L 6.1443697734375 0.9349919999999999 Q 6.1443697734375 0.84624 6.0907057734375005 0.8018639999999999 Q 6.0370417734375 0.7574879999999999 5.9524177734375 0.7574879999999999 Q 5.9008177734375 0.7574879999999999 5.8388977734375 0.7739999999999999 Q 5.7769777734375 0.7905119999999999 5.7398257734375004 0.8255999999999999 L 5.7398257734375004 1.448928 L 5.8760497734375 1.514976 L 5.8760497734375 1.548 L 5.4137137734375 1.548 M 7.0711612031249995 1.56864 Q 6.870953203125 1.56864 6.753305203125 1.446864 Q 6.635657203125 1.325088 6.635657203125 1.122816 Q 6.635657203125 0.9700799999999999 6.698609203125 0.8503679999999999 Q 6.761561203125 0.730656 6.870953203125 0.6635759999999999 Q 6.980345203125 0.5964959999999999 7.120697203125 0.5964959999999999 Q 7.207385203125 0.5964959999999999 7.285817203125 0.6243599999999999 Q 7.364249203125 0.6522239999999999 7.405529203125 0.6976319999999999 Q 7.436489203125 0.7347839999999999 7.436489203125 0.7595519999999999 Q 7.436489203125 0.776064 7.431329203125 0.7853519999999999 Q 7.426169203125 0.7946399999999999 7.4117212031249995 0.8090879999999999 L 7.327097203125 0.8772 L 7.312649203125 0.8772 L 7.242473203125 0.782256 Q 7.2115132031249995 0.7389119999999999 7.168169203125 0.713112 Q 7.124825203125 0.6873119999999999 7.058777203125 0.6873119999999999 Q 6.949385203125 0.6873119999999999 6.887465203125 0.7781279999999999 Q 6.8255452031249995 0.8689439999999999 6.8255452031249995 1.027872 Q 6.8255452031249995 1.12488 6.857537203125 1.209504 Q 6.889529203125 1.294128 6.964865203125 1.345728 Q 7.040201203125 1.397328 7.170233203125 1.397328 Q 7.228025203125 1.397328 7.294073203125 1.37772 Q 7.360121203125 1.358112 7.434425203125 1.318896 L 7.440617203125 1.318896 L 7.440617203125 1.343664 Q 7.393145203125 1.438608 7.296137203125 1.503624 Q 7.199129203125 1.56864 7.0711612031249995 1.56864 M 7.6511048906250005 1.548 L 7.6511048906250005 1.514976 L 7.818288890625 1.432416 L 7.818288890625 0.30134399999999983 L 7.6511048906250005 0.21878399999999987 L 7.6511048906250005 0.18575999999999993 L 8.222832890625 0.18575999999999993 L 8.222832890625 0.21878399999999987 L 8.035008890625 0.30134399999999983 L 8.035008890625 1.43448 L 8.524176890625 1.43448 L 8.670720890625 1.079472 L 8.703744890625 1.079472 L 8.703744890625 1.548 L 7.6511048906250005 1.548 M 9.157796671875 1.56864 Q 9.058724671875 1.56864 8.993708671875 1.509816 Q 8.928692671875 1.450992 8.928692671875 1.347792 Q 8.928692671875 1.246656 9.001964671875 1.173384 Q 9.075236671875 1.100112 9.256868671874999 1.056768 L 9.452948671875 1.0113599999999998 L 9.452948671875 0.86688 Q 9.452948671875 0.792576 9.398252671875 0.7430399999999999 Q 9.343556671875 0.6935039999999999 9.271316671874999 0.6935039999999999 Q 9.194948671875 0.6935039999999999 9.165020671875 0.7327199999999999 Q 9.135092671875 0.771936 9.135092671875 0.8400479999999999 L 9.135092671875 0.9060959999999999 L 9.124772671875 0.9164159999999999 L 9.011252671874999 0.9164159999999999 Q 8.980292671875 0.9164159999999999 8.968940671875 0.905064 Q 8.957588671875 0.893712 8.957588671875 0.85656 Q 8.957588671875 0.811152 8.985452671875 0.764712 Q 9.013316671875 0.7182719999999999 9.071108671874999 0.6831839999999999 Q 9.133028671875 0.6439679999999999 9.197012671875 0.6202319999999999 Q 9.260996671875 0.5964959999999999 9.333236671875 0.5964959999999999 Q 9.411668671874999 0.5964959999999999 9.484940671875 0.6181679999999999 Q 9.558212671875 0.63984 9.603620671875 0.6914399999999999 Q 9.649028671875 0.7430399999999999 9.649028671875 0.8297279999999999 L 9.649028671875 1.405584 Q 9.663476671875 1.420032 9.689276671875 1.430352 Q 9.715076671875 1.440672 9.760484671875 1.440672 L 9.832724671874999 1.440672 L 9.840980671875 1.4448 L 9.840980671875 1.457184 Q 9.816212671875 1.500528 9.765644671875 1.534584 Q 9.715076671875 1.56864 9.642836671875 1.56864 Q 9.572660671875 1.56864 9.529316671875 1.534584 Q 9.485972671875 1.500528 9.467396671875 1.440672 L 9.452948671875 1.440672 Q 9.399284671875 1.494336 9.321884671874999 1.531488 Q 9.244484671875 1.56864 9.157796671875 1.56864 M 9.116516671874999 1.302384 Q 9.116516671874999 1.430352 9.267188671875 1.430352 Q 9.312596671875 1.430352 9.354908671875 1.421064 Q 9.397220671874999 1.4117760000000001 9.452948671875 1.389072 L 9.452948671875 1.0836 Q 9.304340671875 1.112496 9.232100671875 1.1455199999999999 Q 9.159860671875 1.178544 9.138188671875 1.216728 Q 9.116516671874999 1.254912 9.116516671874999 1.302384 M 10.055568140625 1.566576 L 10.055568140625 0.23529599999999995 L 9.929664140625 0.13003199999999993 L 9.929664140625 0.11351999999999984 L 10.235136140625 -2.220446049250313e-16 L 10.249584140625 -2.220446049250313e-16 L 10.249584140625 0.7223999999999999 L 10.257840140625 0.7223999999999999 Q 10.336272140625 0.6563519999999999 10.408512140625 0.6264239999999999 Q 10.480752140625 0.5964959999999999 10.565376140625 0.5964959999999999 Q 10.666512140625 0.5964959999999999 10.747008140625 0.65016 Q 10.827504140625 0.7038239999999999 10.874976140625 0.8018639999999999 Q 10.922448140625 0.8999039999999999 10.922448140625 1.038192 Q 10.922448140625 1.205376 10.857432140625 1.3240560000000001 Q 10.792416140625 1.442736 10.681992140625 1.5056880000000001 Q 10.571568140625 1.56864 10.437408140625001 1.56864 Q 10.350720140625 1.56864 10.276416140625 1.55316 Q 10.202112140625001 1.53768 10.138128140625 1.5087840000000001 L 10.070016140625 1.566576 L 10.055568140625 1.566576 M 10.439472140625 0.7451039999999999 Q 10.340400140625 0.7451039999999999 10.249584140625 0.800832 L 10.249584140625 1.387008 Q 10.301184140625 1.430352 10.354848140625 1.448928 Q 10.408512140625 1.467504 10.474560140625 1.467504 Q 10.542672140625001 1.467504 10.599432140625 1.430352 Q 10.656192140625 1.3932 10.691280140625 1.309608 Q 10.726368140625 1.226016 10.726368140625 1.087728 Q 10.726368140625 0.9700799999999999 10.687152140625 0.893712 Q 10.647936140625001 0.817344 10.582920140625001 0.7812239999999999 Q 10.517904140625001 0.7451039999999999 10.439472140625 0.7451039999999999" fill="#3f170e" fill-rule="nonzero"></path></g><g><path d=" M 0.05020615384615385 3.3194871784615385 Q 0.05020615384615385 3.2417871784615384 0.0771023076923077 3.16707564 Q 0.10399846153846155 3.0923641015384615 0.1554 3.030801793846154 Q 0.20680153846153848 2.969239486153846 0.2821107692307693 2.9327802553846154 Q 0.35742 2.8963210246153848 0.45305076923076926 2.8963210246153848 Q 0.5666123076923077 2.8963210246153848 0.6473007692307693 2.9483202553846155 Q 0.7279892307692308 3.0003194861538462 0.7662415384615385 3.0816056400000003 L 0.7004953846153847 3.122248716923077 Q 0.6730015384615385 3.06606564 0.6311630769230769 3.033192563076923 Q 0.5893246153846154 3.0003194861538462 0.5421069230769231 2.9859748707692306 Q 0.4948892307692308 2.9716302553846154 0.4482692307692308 2.9716302553846154 Q 0.3717646153846154 2.9716302553846154 0.3131907692307693 3.002112563076923 Q 0.25461692307692313 3.0325948707692305 0.21457153846153848 3.0833987169230768 Q 0.17452615384615386 3.134202563076923 0.1542046153846154 3.1969602553846155 Q 0.13388307692307694 3.259717947692308 0.13388307692307694 3.324268716923077 Q 0.13388307692307694 3.394796409230769 0.15779076923076923 3.4593471784615386 Q 0.18169846153846156 3.5238979476923076 0.22473230769230773 3.5735064092307693 Q 0.2677661538461539 3.6231148707692307 0.3257423076923077 3.652401793846154 Q 0.38371846153846156 3.681688716923077 0.45185538461538466 3.681688716923077 Q 0.4996707692307693 3.681688716923077 0.5498769230769232 3.664953332307692 Q 0.6000830769230769 3.6482179476923076 0.6437146153846155 3.613551793846154 Q 0.6873461538461539 3.57888564 0.7136446153846154 3.5238979476923076 L 0.7829769230769231 3.559759486153846 Q 0.7566784615384616 3.6231148707692307 0.7016907692307693 3.6673441015384616 Q 0.646703076923077 3.7115733323076925 0.5791638461538462 3.73428564 Q 0.5116246153846155 3.756997947692308 0.4470738461538462 3.756997947692308 Q 0.35981076923076927 3.756997947692308 0.2868923076923077 3.7193433323076923 Q 0.21397384615384618 3.681688716923077 0.16077923076923079 3.6189310246153847 Q 0.10758461538461539 3.5561733323076923 0.07889538461538462 3.47787564 Q 0.05020615384615385 3.3995779476923076 0.05020615384615385 3.3194871784615385 M 1.1768252185997596 3.7617794861538463 Q 1.1098836801382213 3.7617794861538463 1.053102910907452 3.736078716923077 Q 0.9963221416766828 3.7103779476923076 0.9550813724459135 3.6655510246153846 Q 0.9138406032151443 3.6207241015384617 0.8911282955228366 3.5627479476923076 Q 0.8684159878305289 3.504771793846154 0.8684159878305289 3.4402210246153846 Q 0.8684159878305289 3.373279486153846 0.8911282955228366 3.315303332307692 Q 0.9138406032151443 3.2573271784615385 0.9556790647536058 3.212500255384615 Q 0.9975175262920674 3.167673332307692 1.0542982955228366 3.141972563076923 Q 1.1110790647536057 3.116271793846154 1.1780206032151443 3.116271793846154 Q 1.2449621416766827 3.116271793846154 1.3011452185997596 3.141972563076923 Q 1.3573282955228367 3.167673332307692 1.3991667570612982 3.212500255384615 Q 1.4410052185997597 3.2573271784615385 1.4637175262920674 3.315303332307692 Q 1.4864298339843751 3.373279486153846 1.4864298339843751 3.4402210246153846 Q 1.4864298339843751 3.504771793846154 1.4637175262920674 3.5627479476923076 Q 1.4410052185997597 3.6207241015384617 1.3997644493689905 3.6655510246153846 Q 1.3585236801382212 3.7103779476923076 1.301742910907452 3.736078716923077 Q 1.2449621416766827 3.7617794861538463 1.1768252185997596 3.7617794861538463 M 0.9508975262920674 3.441416409230769 Q 0.9508975262920674 3.510748716923077 0.981379833984375 3.567529486153846 Q 1.0118621416766826 3.6243102553846156 1.0632636801382211 3.6571833323076923 Q 1.1146652185997596 3.6900564092307695 1.1768252185997596 3.6900564092307695 Q 1.2389852185997596 3.6900564092307695 1.2903867570612981 3.65658564 Q 1.3417882955228366 3.6231148707692307 1.3728682955228366 3.565138716923077 Q 1.4039482955228366 3.507162563076923 1.4039482955228366 3.43902564 Q 1.4039482955228366 3.3696933323076923 1.3728682955228366 3.3123148707692307 Q 1.3417882955228366 3.254936409230769 1.2903867570612981 3.22146564 Q 1.2389852185997596 3.1879948707692307 1.1768252185997596 3.1879948707692307 Q 1.1146652185997596 3.1879948707692307 1.0638613724459136 3.222661024615385 Q 1.0130575262920674 3.2573271784615385 0.9819775262920674 3.3141079476923077 Q 0.9508975262920674 3.370888716923077 0.9508975262920674 3.441416409230769 M 1.5826232744891826 3.4402210246153846 Q 1.5826232744891826 3.351762563076923 1.6190825052584135 3.2782464092307695 Q 1.655541736027644 3.2047302553846153 1.7200925052584135 3.1605010246153844 Q 1.7846432744891827 3.116271793846154 1.8671248129507212 3.116271793846154 Q 1.944824812950721 3.116271793846154 2.006387120643029 3.157512563076923 Q 2.0679494283353366 3.1987533323076924 2.1026155821814903 3.2573271784615385 L 2.1026155821814903 2.8771948707692308 L 2.1839017360276443 2.8771948707692308 L 2.1839017360276443 3.6518041015384615 Q 2.1839017360276443 3.668539486153846 2.191074043719952 3.6763094861538463 Q 2.1982463514122594 3.684079486153846 2.212590966796875 3.6852748707692307 L 2.212590966796875 3.74982564 Q 2.1886832744891827 3.753411793846154 2.175534043719952 3.7522164092307695 Q 2.150430966796875 3.7510210246153846 2.131304812950721 3.731894870769231 Q 2.1121786591045675 3.712768716923077 2.1121786591045675 3.6900564092307695 L 2.1121786591045675 3.629091793846154 Q 2.0751217360276444 3.6900564092307695 2.0117663514122595 3.7259179476923077 Q 1.948410966796875 3.7617794861538463 1.8802740437199519 3.7617794861538463 Q 1.8157232744891827 3.7617794861538463 1.7613332744891825 3.735481024615385 Q 1.7069432744891826 3.709182563076923 1.666897889873798 3.6637579476923077 Q 1.6268525052584133 3.6183333323076923 1.604737889873798 3.5603571784615387 Q 1.5826232744891826 3.5023810246153846 1.5826232744891826 3.4402210246153846 M 2.1026155821814903 3.535851793846154 L 2.1026155821814903 3.343394870769231 Q 2.08707558218149 3.3003610246153845 2.0524094283353365 3.2650971784615384 Q 2.017743274489183 3.229833332307692 1.9741117360276443 3.2089141015384617 Q 1.9304801975661057 3.1879948707692307 1.8874463514122595 3.1879948707692307 Q 1.8372401975661057 3.1879948707692307 1.7965971206430287 3.2089141015384617 Q 1.755954043719952 3.229833332307692 1.7266671206430289 3.265694870769231 Q 1.6973801975661058 3.3015564092307694 1.6818401975661057 3.346981024615385 Q 1.6663001975661058 3.3924056400000002 1.6663001975661058 3.4402210246153846 Q 1.6663001975661058 3.4904271784615384 1.6836332744891827 3.535851793846154 Q 1.7009663514122595 3.581276409230769 1.7332417360276442 3.6165402553846153 Q 1.765517120643029 3.6518041015384615 1.8073555821814904 3.6709302553846155 Q 1.8491940437199519 3.6900564092307695 1.8982048129507212 3.6900564092307695 Q 1.9292848129507212 3.6900564092307695 1.9627555821814904 3.6781025630769233 Q 1.9962263514122596 3.666148716923077 2.0267086591045675 3.645229486153846 Q 2.057190966796875 3.6243102553846156 2.0775125052584134 3.595621024615385 Q 2.097834043719952 3.566931793846154 2.1026155821814903 3.535851793846154 M 2.638756672175481 3.7617794861538463 Q 2.571815133713942 3.7617794861538463 2.514436672175481 3.736078716923077 Q 2.4570582106370193 3.7103779476923076 2.415219749098558 3.6655510246153846 Q 2.3733812875600964 3.6207241015384617 2.350071287560096 3.5621502553846156 Q 2.326761287560096 3.503576409230769 2.326761287560096 3.4366348707692307 Q 2.326761287560096 3.349371793846154 2.3668066721754806 3.2764533323076925 Q 2.4068520567908656 3.203534870769231 2.477379749098558 3.1599033323076924 Q 2.54790744140625 3.116271793846154 2.637561287560096 3.116271793846154 Q 2.7296059029447117 3.116271793846154 2.798340518329327 3.1605010246153844 Q 2.8670751337139424 3.2047302553846153 2.906522826021635 3.2770510246153846 Q 2.945970518329327 3.349371793846154 2.945970518329327 3.435439486153846 Q 2.945970518329327 3.445002563076923 2.945970518329327 3.4539679476923077 Q 2.945970518329327 3.4629333323076925 2.9447751337139425 3.467714870769231 L 2.411633595252404 3.467714870769231 Q 2.417610518329327 3.5346564092307693 2.449288210637019 3.58665564 Q 2.4809659029447118 3.6386548707692308 2.5317697490985576 3.6691371784615385 Q 2.582573595252404 3.6996194861538463 2.642342826021635 3.6996194861538463 Q 2.70330744140625 3.6996194861538463 2.75769744140625 3.668539486153846 Q 2.81208744140625 3.6374594861538463 2.833604364483173 3.5872533323076925 L 2.9041320567908655 3.606379486153846 Q 2.8850059029447115 3.650608716923077 2.8455582106370194 3.6864702553846156 Q 2.806110518329327 3.7223317938461538 2.7529159029447117 3.7420556400000002 Q 2.699721287560096 3.7617794861538463 2.638756672175481 3.7617794861538463 M 2.4092428260216345 3.409141024615385 L 2.869465902944712 3.409141024615385 Q 2.864684364483173 3.3410041015384615 2.8330066721754807 3.2896025630769232 Q 2.8013289798677885 3.2382010246153845 2.7505251337139422 3.2089141015384617 Q 2.699721287560096 3.1796271784615384 2.638756672175481 3.1796271784615384 Q 2.5777920567908654 3.1796271784615384 2.5275859029447116 3.2089141015384617 Q 2.477379749098558 3.2382010246153845 2.4457020567908656 3.2902002553846152 Q 2.414024364483173 3.342199486153846 2.4092428260216345 3.409141024615385 M 3.0863984427584135 3.8466517938461537 L 3.106719981219952 3.746239486153846 L 3.0792261350661057 3.746239486153846 L 3.0792261350661057 3.632677947692308 L 3.1581215196814902 3.632677947692308 L 3.1581215196814902 3.746239486153846 L 3.128236904296875 3.8466517938461537 L 3.0863984427584135 3.8466517938461537 M 3.61114894155649 3.3194871784615385 Q 3.61114894155649 3.2417871784615384 3.638045095402644 3.16707564 Q 3.664941249248798 3.0923641015384615 3.7163427877103365 3.030801793846154 Q 3.767744326171875 2.969239486153846 3.8430535569411055 2.9327802553846154 Q 3.918362787710336 2.8963210246153848 4.013993556941106 2.8963210246153848 Q 4.127555095402644 2.8963210246153848 4.208243556941106 2.9483202553846155 Q 4.288932018479567 3.0003194861538462 4.327184326171875 3.0816056400000003 L 4.261438172325721 3.122248716923077 Q 4.2339443261718746 3.06606564 4.1921058646334135 3.033192563076923 Q 4.150267403094952 3.0003194861538462 4.10304971078726 2.9859748707692306 Q 4.055832018479567 2.9716302553846154 4.009212018479567 2.9716302553846154 Q 3.932707403094952 2.9716302553846154 3.8741335569411057 3.002112563076923 Q 3.8155597107872596 3.0325948707692305 3.7755143261718747 3.0833987169230768 Q 3.73546894155649 3.134202563076923 3.7151474030949516 3.1969602553846155 Q 3.694825864633413 3.259717947692308 3.694825864633413 3.324268716923077 Q 3.694825864633413 3.394796409230769 3.7187335569411055 3.4593471784615386 Q 3.742641249248798 3.5238979476923076 3.785675095402644 3.5735064092307693 Q 3.8287089415564903 3.6231148707692307 3.886685095402644 3.652401793846154 Q 3.944661249248798 3.681688716923077 4.012798172325721 3.681688716923077 Q 4.060613556941106 3.681688716923077 4.1108197107872595 3.664953332307692 Q 4.161025864633413 3.6482179476923076 4.204657403094952 3.613551793846154 Q 4.24828894155649 3.57888564 4.2745874030949516 3.5238979476923076 L 4.34391971078726 3.559759486153846 Q 4.317621249248798 3.6231148707692307 4.262633556941106 3.6673441015384616 Q 4.207645864633413 3.7115733323076925 4.140106633864183 3.73428564 Q 4.0725674030949515 3.756997947692308 4.008016633864183 3.756997947692308 Q 3.9207535569411056 3.756997947692308 3.847835095402644 3.7193433323076923 Q 3.7749166338641826 3.681688716923077 3.721722018479567 3.6189310246153847 Q 3.6685274030949517 3.5561733323076923 3.639838172325721 3.47787564 Q 3.61114894155649 3.3995779476923076 3.61114894155649 3.3194871784615385 M 4.7377680063100955 3.7617794861538463 Q 4.670826467848557 3.7617794861538463 4.6140456986177885 3.736078716923077 Q 4.557264929387019 3.7103779476923076 4.51602416015625 3.6655510246153846 Q 4.474783390925481 3.6207241015384617 4.4520710832331725 3.5627479476923076 Q 4.429358775540865 3.504771793846154 4.429358775540865 3.4402210246153846 Q 4.429358775540865 3.373279486153846 4.4520710832331725 3.315303332307692 Q 4.474783390925481 3.2573271784615385 4.516621852463942 3.212500255384615 Q 4.558460314002404 3.167673332307692 4.6152410832331725 3.141972563076923 Q 4.672021852463942 3.116271793846154 4.7389633909254805 3.116271793846154 Q 4.805904929387019 3.116271793846154 4.8620880063100955 3.141972563076923 Q 4.918271083233173 3.167673332307692 4.960109544771634 3.212500255384615 Q 5.001948006310096 3.2573271784615385 5.0246603140024035 3.315303332307692 Q 5.047372621694711 3.373279486153846 5.047372621694711 3.4402210246153846 Q 5.047372621694711 3.504771793846154 5.0246603140024035 3.5627479476923076 Q 5.001948006310096 3.6207241015384617 4.960707237079327 3.6655510246153846 Q 4.919466467848557 3.7103779476923076 4.862685698617788 3.736078716923077 Q 4.805904929387019 3.7617794861538463 4.7377680063100955 3.7617794861538463 M 4.511840314002404 3.441416409230769 Q 4.511840314002404 3.510748716923077 4.542322621694711 3.567529486153846 Q 4.5728049293870185 3.6243102553846156 4.624206467848557 3.6571833323076923 Q 4.675608006310096 3.6900564092307695 4.7377680063100955 3.6900564092307695 Q 4.799928006310096 3.6900564092307695 4.851329544771635 3.65658564 Q 4.9027310832331725 3.6231148707692307 4.933811083233173 3.565138716923077 Q 4.964891083233173 3.507162563076923 4.964891083233173 3.43902564 Q 4.964891083233173 3.3696933323076923 4.933811083233173 3.3123148707692307 Q 4.9027310832331725 3.254936409230769 4.851329544771635 3.22146564 Q 4.799928006310096 3.1879948707692307 4.7377680063100955 3.1879948707692307 Q 4.675608006310096 3.1879948707692307 4.62480416015625 3.222661024615385 Q 4.5740003140024035 3.2573271784615385 4.542920314002403 3.3141079476923077 Q 4.511840314002404 3.370888716923077 4.511840314002404 3.441416409230769 M 5.708982985276442 3.74982564 L 5.627696831430288 3.74982564 L 5.627696831430288 3.401968716923077 Q 5.627696831430288 3.291993332307692 5.595421446814903 3.2411894861538464 Q 5.563146062199519 3.19038564 5.493813754507212 3.19038564 Q 5.445998369891827 3.19038564 5.399378369891827 3.21369564 Q 5.352758369891827 3.23700564 5.317494523737981 3.2770510246153846 Q 5.282230677584135 3.317096409230769 5.266690677584134 3.368497947692308 L 5.266690677584134 3.74982564 L 5.18540452373798 3.74982564 L 5.18540452373798 3.127030255384615 L 5.259518369891826 3.127030255384615 L 5.259518369891826 3.26808564 Q 5.284621446814904 3.222661024615385 5.325264523737981 3.188592563076923 Q 5.365907600661058 3.1545241015384615 5.417309139122596 3.135397947692308 Q 5.468710677584134 3.116271793846154 5.523698369891827 3.116271793846154 Q 5.575099908353365 3.116271793846154 5.610961446814904 3.135397947692308 Q 5.646822985276442 3.1545241015384615 5.668339908353365 3.1897879476923077 Q 5.689856831430288 3.225051793846154 5.699419908353365 3.2746602553846156 Q 5.708982985276442 3.324268716923077 5.708982985276442 3.3852333323076924 L 5.708982985276442 3.74982564 M 6.407694631911058 3.74982564 L 6.326408478064904 3.74982564 L 6.326408478064904 3.401968716923077 Q 6.326408478064904 3.291993332307692 6.294133093449519 3.2411894861538464 Q 6.2618577088341345 3.19038564 6.192525401141827 3.19038564 Q 6.144710016526442 3.19038564 6.0980900165264424 3.21369564 Q 6.051470016526443 3.23700564 6.016206170372596 3.2770510246153846 Q 5.98094232421875 3.317096409230769 5.96540232421875 3.368497947692308 L 5.96540232421875 3.74982564 L 5.884116170372596 3.74982564 L 5.884116170372596 3.127030255384615 L 5.958230016526442 3.127030255384615 L 5.958230016526442 3.26808564 Q 5.983333093449519 3.222661024615385 6.023976170372596 3.188592563076923 Q 6.064619247295673 3.1545241015384615 6.116020785757211 3.135397947692308 Q 6.16742232421875 3.116271793846154 6.222410016526442 3.116271793846154 Q 6.27381155498798 3.116271793846154 6.309673093449519 3.135397947692308 Q 6.3455346319110575 3.1545241015384615 6.367051554987981 3.1897879476923077 Q 6.3885684780649035 3.225051793846154 6.39813155498798 3.2746602553846156 Q 6.407694631911058 3.324268716923077 6.407694631911058 3.3852333323076924 L 6.407694631911058 3.74982564 M 6.85178935546875 3.7617794861538463 Q 6.784847817007211 3.7617794861538463 6.72746935546875 3.736078716923077 Q 6.670090893930288 3.7103779476923076 6.628252432391827 3.6655510246153846 Q 6.586413970853365 3.6207241015384617 6.563103970853366 3.5621502553846156 Q 6.539793970853365 3.503576409230769 6.539793970853365 3.4366348707692307 Q 6.539793970853365 3.349371793846154 6.57983935546875 3.2764533323076925 Q 6.619884740084134 3.203534870769231 6.690412432391827 3.1599033323076924 Q 6.760940124699519 3.116271793846154 6.850593970853366 3.116271793846154 Q 6.9426385862379805 3.116271793846154 7.011373201622596 3.1605010246153844 Q 7.080107817007212 3.2047302553846153 7.119555509314904 3.2770510246153846 Q 7.159003201622596 3.349371793846154 7.159003201622596 3.435439486153846 Q 7.159003201622596 3.445002563076923 7.159003201622596 3.4539679476923077 Q 7.159003201622596 3.4629333323076925 7.157807817007211 3.467714870769231 L 6.624666278545673 3.467714870769231 Q 6.630643201622596 3.5346564092307693 6.662320893930288 3.58665564 Q 6.6939985862379805 3.6386548707692308 6.744802432391827 3.6691371784615385 Q 6.795606278545673 3.6996194861538463 6.855375509314904 3.6996194861538463 Q 6.916340124699519 3.6996194861538463 6.97073012469952 3.668539486153846 Q 7.025120124699519 3.6374594861538463 7.046637047776442 3.5872533323076925 L 7.117164740084135 3.606379486153846 Q 7.098038586237981 3.650608716923077 7.058590893930289 3.6864702553846156 Q 7.0191432016225965 3.7223317938461538 6.965948586237981 3.7420556400000002 Q 6.912753970853365 3.7617794861538463 6.85178935546875 3.7617794861538463 M 6.622275509314904 3.409141024615385 L 7.082498586237981 3.409141024615385 Q 7.077717047776442 3.3410041015384615 7.04603935546875 3.2896025630769232 Q 7.014361663161058 3.2382010246153845 6.963557817007212 3.2089141015384617 Q 6.912753970853365 3.1796271784615384 6.85178935546875 3.1796271784615384 Q 6.790824740084135 3.1796271784615384 6.74061858623798 3.2089141015384617 Q 6.690412432391827 3.2382010246153845 6.658734740084134 3.2902002553846152 Q 6.627057047776442 3.342199486153846 6.622275509314904 3.409141024615385 M 7.556438818359375 3.7617794861538463 Q 7.488301895282452 3.7617794861538463 7.431521126051683 3.736078716923077 Q 7.374740356820913 3.7103779476923076 7.332304202974759 3.664953332307692 Q 7.289868049128605 3.619528716923077 7.266558049128606 3.5609548707692307 Q 7.2432480491286055 3.5023810246153846 7.2432480491286055 3.4366348707692307 Q 7.2432480491286055 3.3481764092307693 7.282695741436298 3.2752579476923076 Q 7.322143433743991 3.2023394861538463 7.392671126051683 3.15930564 Q 7.463198818359375 3.116271793846154 7.55524343374399 3.116271793846154 Q 7.642506510667067 3.116271793846154 7.709448049128605 3.1563171784615385 Q 7.7763895875901445 3.196362563076923 7.808664972205529 3.2644994861538463 L 7.729769587590145 3.2896025630769232 Q 7.703471126051682 3.2417871784615384 7.6562534337439905 3.2148910246153846 Q 7.609035741436298 3.1879948707692307 7.551657279897836 3.1879948707692307 Q 7.4894972798978365 3.1879948707692307 7.438095741436298 3.2202702553846154 Q 7.386694202974759 3.25254564 7.356211895282452 3.308728716923077 Q 7.3257295875901445 3.364911793846154 7.3257295875901445 3.4366348707692307 Q 7.3257295875901445 3.507162563076923 7.356809587590144 3.5645410246153846 Q 7.387889587590144 3.621919486153846 7.439291126051683 3.655987947692308 Q 7.4906926645132215 3.6900564092307695 7.552852664513221 3.6900564092307695 Q 7.593495741436298 3.6900564092307695 7.631150356820913 3.675711793846154 Q 7.668804972205529 3.6613671784615387 7.6968965106670675 3.636861793846154 Q 7.724988049128606 3.6123564092307694 7.734551126051683 3.5836671784615386 L 7.814641895282452 3.607574870769231 Q 7.797906510667067 3.6518041015384615 7.759056510667067 3.6870679476923076 Q 7.720206510667067 3.7223317938461538 7.668207279897836 3.7420556400000002 Q 7.6162080491286055 3.7617794861538463 7.556438818359375 3.7617794861538463 M 8.243200704627403 3.719941024615385 Q 8.233637627704327 3.7235271784615387 8.213316089242788 3.7330902553846155 Q 8.19299455078125 3.7426533323076923 8.16430532001202 3.74982564 Q 8.135616089242788 3.756997947692308 8.102145320012019 3.756997947692308 Q 8.067479166165866 3.756997947692308 8.036996858473557 3.743848716923077 Q 8.00651455078125 3.730699486153846 7.9885837815504805 3.703803332307692 Q 7.970653012319712 3.6769071784615384 7.970653012319712 3.6374594861538463 L 7.970653012319712 3.1915810246153846 L 7.884585320012019 3.1915810246153846 L 7.884585320012019 3.127030255384615 L 7.970653012319712 3.127030255384615 L 7.970653012319712 2.9166425630769233 L 8.051939166165866 2.9166425630769233 L 8.051939166165866 3.127030255384615 L 8.195385320012019 3.127030255384615 L 8.195385320012019 3.1915810246153846 L 8.051939166165866 3.1915810246153846 L 8.051939166165866 3.6147471784615384 Q 8.054329935396634 3.6482179476923076 8.07644455078125 3.664953332307692 Q 8.098559166165865 3.681688716923077 8.127248396935096 3.681688716923077 Q 8.160719166165865 3.681688716923077 8.18821301231971 3.670332563076923 Q 8.215706858473558 3.6589764092307693 8.22168378155048 3.654194870769231 L 8.243200704627403 3.719941024615385 M 8.603043576472357 3.570517947692308 Q 8.603043576472357 3.511944101538462 8.636514345703127 3.469507947692308 Q 8.669985114933896 3.427071793846154 8.729156653395433 3.403761793846154 Q 8.788328191856973 3.380451793846154 8.866028191856973 3.380451793846154 Q 8.911452807241588 3.380451793846154 8.960463576472357 3.3876241015384614 Q 9.009474345703126 3.394796409230769 9.047726653395435 3.409141024615385 L 9.047726653395435 3.3565441015384616 Q 9.047726653395435 3.277648716923077 9.001106653395434 3.2310287169230767 Q 8.954486653395433 3.184408716923077 8.872005114933895 3.184408716923077 Q 8.821798961087742 3.184408716923077 8.773385884164664 3.2029371784615384 Q 8.724972807241588 3.22146564 8.672375884164664 3.2573271784615385 L 8.641295884164665 3.199948716923077 Q 8.70226049954928 3.1581102553846154 8.760834345703126 3.1371910246153845 Q 8.819408191856972 3.116271793846154 8.880372807241587 3.116271793846154 Q 8.99512973031851 3.116271793846154 9.062071268780048 3.182017947692308 Q 9.129012807241587 3.2477641015384613 9.129012807241587 3.3637164092307694 L 9.129012807241587 3.6518041015384615 Q 9.129012807241587 3.668539486153846 9.136185114933895 3.6763094861538463 Q 9.143357422626202 3.684079486153846 9.158897422626204 3.6852748707692307 L 9.158897422626204 3.74982564 Q 9.145748191856972 3.7510210246153846 9.136185114933895 3.7522164092307695 Q 9.126622038010819 3.753411793846154 9.121840499549279 3.7522164092307695 Q 9.091955884164664 3.7510210246153846 9.076415884164664 3.7330902553846155 Q 9.060875884164664 3.7151594861538464 9.05968049954928 3.694837947692308 L 9.058485114933895 3.6494133323076925 Q 9.016646653395433 3.70320564 8.949705114933895 3.732492563076923 Q 8.882763576472357 3.7617794861538463 8.813431268780048 3.7617794861538463 Q 8.753662038010818 3.7617794861538463 8.705248961087742 3.736078716923077 Q 8.656835884164664 3.7103779476923076 8.62993973031851 3.666746409230769 Q 8.603043576472357 3.6231148707692307 8.603043576472357 3.570517947692308 M 9.020232807241587 3.6183333323076923 Q 9.033382038010819 3.6015979476923077 9.040554345703127 3.5860579476923076 Q 9.047726653395435 3.570517947692308 9.047726653395435 3.5585641015384617 L 9.047726653395435 3.467714870769231 Q 9.007083576472358 3.452174870769231 8.963452038010818 3.4438071784615385 Q 8.91982049954928 3.435439486153846 8.875591268780049 3.435439486153846 Q 8.788328191856973 3.435439486153846 8.734535884164664 3.47010564 Q 8.680743576472358 3.504771793846154 8.680743576472358 3.5645410246153846 Q 8.680743576472358 3.5992071784615387 8.698674345703125 3.629689486153846 Q 8.716605114933895 3.6601717938461538 8.75127126878005 3.6798956400000002 Q 8.785937422626203 3.6996194861538463 8.832557422626202 3.6996194861538463 Q 8.891131268780049 3.6996194861538463 8.941935114933894 3.6769071784615384 Q 8.992738961087742 3.654194870769231 9.020232807241587 3.6183333323076923 M 9.830085455228366 3.74982564 L 9.748799301382212 3.74982564 L 9.748799301382212 3.401968716923077 Q 9.748799301382212 3.291993332307692 9.716523916766828 3.2411894861538464 Q 9.684248532151443 3.19038564 9.614916224459135 3.19038564 Q 9.56710083984375 3.19038564 9.520480839843751 3.21369564 Q 9.47386083984375 3.23700564 9.438596993689904 3.2770510246153846 Q 9.403333147536058 3.317096409230769 9.387793147536058 3.368497947692308 L 9.387793147536058 3.74982564 L 9.306506993689904 3.74982564 L 9.306506993689904 3.127030255384615 L 9.38062083984375 3.127030255384615 L 9.38062083984375 3.26808564 Q 9.405723916766828 3.222661024615385 9.446366993689905 3.188592563076923 Q 9.487010070612982 3.1545241015384615 9.53841160907452 3.135397947692308 Q 9.58981314753606 3.116271793846154 9.64480083984375 3.116271793846154 Q 9.696202378305289 3.116271793846154 9.732063916766828 3.135397947692308 Q 9.767925455228367 3.1545241015384615 9.789442378305289 3.1897879476923077 Q 9.810959301382212 3.225051793846154 9.82052237830529 3.2746602553846156 Q 9.830085455228366 3.324268716923077 9.830085455228366 3.3852333323076924 L 9.830085455228366 3.74982564 M 9.963380178786059 3.4402210246153846 Q 9.963380178786059 3.351762563076923 9.999839409555289 3.2782464092307695 Q 10.036298640324521 3.2047302553846153 10.10084940955529 3.1605010246153844 Q 10.165400178786058 3.116271793846154 10.247881717247598 3.116271793846154 Q 10.325581717247598 3.116271793846154 10.387144024939905 3.157512563076923 Q 10.448706332632213 3.1987533323076924 10.483372486478366 3.2573271784615385 L 10.483372486478366 2.8771948707692308 L 10.56465864032452 2.8771948707692308 L 10.56465864032452 3.6518041015384615 Q 10.56465864032452 3.668539486153846 10.571830948016828 3.6763094861538463 Q 10.579003255709136 3.684079486153846 10.593347871093751 3.6852748707692307 L 10.593347871093751 3.74982564 Q 10.569440178786058 3.753411793846154 10.556290948016828 3.7522164092307695 Q 10.531187871093751 3.7510210246153846 10.512061717247597 3.731894870769231 Q 10.492935563401444 3.712768716923077 10.492935563401444 3.6900564092307695 L 10.492935563401444 3.629091793846154 Q 10.45587864032452 3.6900564092307695 10.392523255709136 3.7259179476923077 Q 10.329167871093752 3.7617794861538463 10.261030948016828 3.7617794861538463 Q 10.196480178786059 3.7617794861538463 10.14209017878606 3.735481024615385 Q 10.087700178786058 3.709182563076923 10.047654794170674 3.6637579476923077 Q 10.00760940955529 3.6183333323076923 9.985494794170673 3.5603571784615387 Q 9.963380178786059 3.5023810246153846 9.963380178786059 3.4402210246153846 M 10.483372486478366 3.535851793846154 L 10.483372486478366 3.343394870769231 Q 10.467832486478367 3.3003610246153845 10.433166332632213 3.2650971784615384 Q 10.398500178786058 3.229833332307692 10.35486864032452 3.2089141015384617 Q 10.311237101862982 3.1879948707692307 10.268203255709135 3.1879948707692307 Q 10.217997101862982 3.1879948707692307 10.177354024939905 3.2089141015384617 Q 10.136710948016828 3.229833332307692 10.107424024939904 3.265694870769231 Q 10.078137101862982 3.3015564092307694 10.062597101862982 3.346981024615385 Q 10.04705710186298 3.3924056400000002 10.04705710186298 3.4402210246153846 Q 10.04705710186298 3.4904271784615384 10.06439017878606 3.535851793846154 Q 10.081723255709136 3.581276409230769 10.113998640324521 3.6165402553846153 Q 10.146274024939904 3.6518041015384615 10.188112486478365 3.6709302553846155 Q 10.229950948016828 3.6900564092307695 10.278961717247597 3.6900564092307695 Q 10.310041717247596 3.6900564092307695 10.343512486478366 3.6781025630769233 Q 10.376983255709135 3.666148716923077 10.407465563401443 3.645229486153846 Q 10.437947871093751 3.6243102553846156 10.458269409555289 3.595621024615385 Q 10.478590948016828 3.566931793846154 10.483372486478366 3.535851793846154 M 11.017726336388224 3.3194871784615385 Q 11.017726336388224 3.2417871784615384 11.044622490234376 3.16707564 Q 11.07151864408053 3.0923641015384615 11.12292018254207 3.030801793846154 Q 11.174321721003608 2.969239486153846 11.249630951772838 2.9327802553846154 Q 11.324940182542068 2.8963210246153848 11.420570951772838 2.8963210246153848 Q 11.534132490234377 2.8963210246153848 11.614820951772838 2.9483202553846155 Q 11.6955094133113 3.0003194861538462 11.733761721003608 3.0816056400000003 L 11.668015567157454 3.122248716923077 Q 11.640521721003607 3.06606564 11.598683259465146 3.033192563076923 Q 11.556844797926685 3.0003194861538462 11.509627105618993 2.9859748707692306 Q 11.462409413311299 2.9716302553846154 11.4157894133113 2.9716302553846154 Q 11.339284797926684 2.9716302553846154 11.280710951772837 3.002112563076923 Q 11.222137105618993 3.0325948707692305 11.182091721003607 3.0833987169230768 Q 11.142046336388223 3.134202563076923 11.121724797926685 3.1969602553846155 Q 11.101403259465146 3.259717947692308 11.101403259465146 3.324268716923077 Q 11.101403259465146 3.394796409230769 11.125310951772839 3.4593471784615386 Q 11.14921864408053 3.5238979476923076 11.192252490234377 3.5735064092307693 Q 11.235286336388222 3.6231148707692307 11.293262490234376 3.652401793846154 Q 11.35123864408053 3.681688716923077 11.419375567157454 3.681688716923077 Q 11.467190951772839 3.681688716923077 11.517397105618992 3.664953332307692 Q 11.567603259465146 3.6482179476923076 11.611234797926684 3.613551793846154 Q 11.654866336388222 3.57888564 11.681164797926684 3.5238979476923076 L 11.750497105618992 3.559759486153846 Q 11.72419864408053 3.6231148707692307 11.669210951772838 3.6673441015384616 Q 11.614223259465145 3.7115733323076925 11.546684028695916 3.73428564 Q 11.479144797926685 3.756997947692308 11.414594028695916 3.756997947692308 Q 11.327330951772838 3.756997947692308 11.254412490234376 3.7193433323076923 Q 11.181494028695916 3.681688716923077 11.1282994133113 3.6189310246153847 Q 11.075104797926684 3.5561733323076923 11.046415567157453 3.47787564 Q 11.017726336388224 3.3995779476923076 11.017726336388224 3.3194871784615385 M 12.189770016526444 3.1987533323076924 Q 12.10848386268029 3.2011441015384614 12.046921554987982 3.244177947692308 Q 11.985359247295674 3.287211793846154 11.960256170372597 3.3625210246153845 L 11.960256170372597 3.74982564 L 11.878970016526443 3.74982564 L 11.878970016526443 3.127030255384615 L 11.95547463191106 3.127030255384615 L 11.95547463191106 3.2764533323076925 Q 11.987750016526444 3.2107071784615386 12.040944631911058 3.1700641015384616 Q 12.094139247295674 3.1294210246153846 12.153908478064904 3.1246394861538462 Q 12.16586232421875 3.1234441015384613 12.174827708834135 3.1234441015384613 Q 12.18379309344952 3.1234441015384613 12.189770016526444 3.1246394861538462 L 12.189770016526444 3.1987533323076924 M 12.550204743840146 3.7617794861538463 Q 12.483263205378607 3.7617794861538463 12.425884743840145 3.736078716923077 Q 12.368506282301684 3.7103779476923076 12.326667820763221 3.6655510246153846 Q 12.28482935922476 3.6207241015384617 12.26151935922476 3.5621502553846156 Q 12.238209359224761 3.503576409230769 12.238209359224761 3.4366348707692307 Q 12.238209359224761 3.349371793846154 12.278254743840145 3.2764533323076925 Q 12.31830012845553 3.203534870769231 12.388827820763222 3.1599033323076924 Q 12.459355513070914 3.116271793846154 12.54900935922476 3.116271793846154 Q 12.641053974609376 3.116271793846154 12.709788589993991 3.1605010246153844 Q 12.778523205378606 3.2047302553846153 12.8179708976863 3.2770510246153846 Q 12.85741858999399 3.349371793846154 12.85741858999399 3.435439486153846 Q 12.85741858999399 3.445002563076923 12.85741858999399 3.4539679476923077 Q 12.85741858999399 3.4629333323076925 12.856223205378607 3.467714870769231 L 12.323081666917068 3.467714870769231 Q 12.329058589993991 3.5346564092307693 12.360736282301684 3.58665564 Q 12.392413974609376 3.6386548707692308 12.443217820763222 3.6691371784615385 Q 12.49402166691707 3.6996194861538463 12.5537908976863 3.6996194861538463 Q 12.614755513070914 3.6996194861538463 12.669145513070914 3.668539486153846 Q 12.723535513070914 3.6374594861538463 12.745052436147837 3.5872533323076925 L 12.81558012845553 3.606379486153846 Q 12.796453974609376 3.650608716923077 12.757006282301683 3.6864702553846156 Q 12.717558589993992 3.7223317938461538 12.664363974609376 3.7420556400000002 Q 12.61116935922476 3.7617794861538463 12.550204743840146 3.7617794861538463 M 12.3206908976863 3.409141024615385 L 12.780913974609376 3.409141024615385 Q 12.776132436147838 3.3410041015384615 12.744454743840146 3.2896025630769232 Q 12.712777051532452 3.2382010246153845 12.661973205378606 3.2089141015384617 Q 12.61116935922476 3.1796271784615384 12.550204743840146 3.1796271784615384 Q 12.48924012845553 3.1796271784615384 12.439033974609377 3.2089141015384617 Q 12.388827820763222 3.2382010246153845 12.35715012845553 3.2902002553846152 Q 12.325472436147837 3.342199486153846 12.3206908976863 3.409141024615385 M 12.934491129807695 3.570517947692308 Q 12.934491129807695 3.511944101538462 12.967961899038464 3.469507947692308 Q 13.001432668269233 3.427071793846154 13.06060420673077 3.403761793846154 Q 13.11977574519231 3.380451793846154 13.19747574519231 3.380451793846154 Q 13.242900360576925 3.380451793846154 13.291911129807694 3.3876241015384614 Q 13.340921899038463 3.394796409230769 13.379174206730772 3.409141024615385 L 13.379174206730772 3.3565441015384616 Q 13.379174206730772 3.277648716923077 13.332554206730771 3.2310287169230767 Q 13.28593420673077 3.184408716923077 13.203452668269232 3.184408716923077 Q 13.15324651442308 3.184408716923077 13.104833437500002 3.2029371784615384 Q 13.056420360576926 3.22146564 13.003823437500001 3.2573271784615385 L 12.972743437500002 3.199948716923077 Q 13.033708052884617 3.1581102553846154 13.092281899038463 3.1371910246153845 Q 13.15085574519231 3.116271793846154 13.211820360576924 3.116271793846154 Q 13.326577283653847 3.116271793846154 13.393518822115386 3.182017947692308 Q 13.460460360576924 3.2477641015384613 13.460460360576924 3.3637164092307694 L 13.460460360576924 3.6518041015384615 Q 13.460460360576924 3.668539486153846 13.467632668269232 3.6763094861538463 Q 13.47480497596154 3.684079486153846 13.490344975961541 3.6852748707692307 L 13.490344975961541 3.74982564 Q 13.47719574519231 3.7510210246153846 13.467632668269232 3.7522164092307695 Q 13.458069591346156 3.753411793846154 13.453288052884616 3.7522164092307695 Q 13.423403437500001 3.7510210246153846 13.407863437500001 3.7330902553846155 Q 13.392323437500002 3.7151594861538464 13.391128052884618 3.694837947692308 L 13.389932668269232 3.6494133323076925 Q 13.34809420673077 3.70320564 13.281152668269232 3.732492563076923 Q 13.214211129807694 3.7617794861538463 13.144878822115386 3.7617794861538463 Q 13.085109591346155 3.7617794861538463 13.03669651442308 3.736078716923077 Q 12.988283437500002 3.7103779476923076 12.961387283653847 3.666746409230769 Q 12.934491129807695 3.6231148707692307 12.934491129807695 3.570517947692308 M 13.351680360576925 3.6183333323076923 Q 13.364829591346156 3.6015979476923077 13.372001899038464 3.5860579476923076 Q 13.379174206730772 3.570517947692308 13.379174206730772 3.5585641015384617 L 13.379174206730772 3.467714870769231 Q 13.338531129807695 3.452174870769231 13.294899591346155 3.4438071784615385 Q 13.251268052884617 3.435439486153846 13.207038822115386 3.435439486153846 Q 13.11977574519231 3.435439486153846 13.065983437500002 3.47010564 Q 13.012191129807695 3.504771793846154 13.012191129807695 3.5645410246153846 Q 13.012191129807695 3.5992071784615387 13.030121899038463 3.629689486153846 Q 13.048052668269232 3.6601717938461538 13.082718822115387 3.6798956400000002 Q 13.11738497596154 3.6996194861538463 13.16400497596154 3.6996194861538463 Q 13.222578822115386 3.6996194861538463 13.273382668269232 3.6769071784615384 Q 13.32418651442308 3.654194870769231 13.351680360576925 3.6183333323076923 M 13.931985308743993 3.719941024615385 Q 13.922422231820915 3.7235271784615387 13.902100693359378 3.7330902553846155 Q 13.881779154897838 3.7426533323076923 13.853089924128607 3.74982564 Q 13.824400693359378 3.756997947692308 13.790929924128609 3.756997947692308 Q 13.756263770282454 3.756997947692308 13.725781462590147 3.743848716923077 Q 13.695299154897839 3.730699486153846 13.67736838566707 3.703803332307692 Q 13.6594376164363 3.6769071784615384 13.6594376164363 3.6374594861538463 L 13.6594376164363 3.1915810246153846 L 13.573369924128608 3.1915810246153846 L 13.573369924128608 3.127030255384615 L 13.6594376164363 3.127030255384615 L 13.6594376164363 2.9166425630769233 L 13.740723770282454 2.9166425630769233 L 13.740723770282454 3.127030255384615 L 13.884169924128608 3.127030255384615 L 13.884169924128608 3.1915810246153846 L 13.740723770282454 3.1915810246153846 L 13.740723770282454 3.6147471784615384 Q 13.743114539513224 3.6482179476923076 13.765229154897838 3.664953332307692 Q 13.787343770282455 3.681688716923077 13.816033001051684 3.681688716923077 Q 13.849503770282453 3.681688716923077 13.8769976164363 3.670332563076923 Q 13.904491462590146 3.6589764092307693 13.91046838566707 3.654194870769231 L 13.931985308743993 3.719941024615385 M 14.29364869065505 3.7617794861538463 Q 14.226707152193512 3.7617794861538463 14.16932869065505 3.736078716923077 Q 14.111950229116589 3.7103779476923076 14.070111767578126 3.6655510246153846 Q 14.028273306039665 3.6207241015384617 14.004963306039665 3.5621502553846156 Q 13.981653306039666 3.503576409230769 13.981653306039666 3.4366348707692307 Q 13.981653306039666 3.349371793846154 14.02169869065505 3.2764533323076925 Q 14.061744075270434 3.203534870769231 14.132271767578127 3.1599033323076924 Q 14.202799459885819 3.116271793846154 14.292453306039665 3.116271793846154 Q 14.38449792142428 3.116271793846154 14.453232536808896 3.1605010246153844 Q 14.521967152193511 3.2047302553846153 14.561414844501204 3.2770510246153846 Q 14.600862536808897 3.349371793846154 14.600862536808897 3.435439486153846 Q 14.600862536808897 3.445002563076923 14.600862536808897 3.4539679476923077 Q 14.600862536808897 3.4629333323076925 14.599667152193511 3.467714870769231 L 14.066525613731972 3.467714870769231 Q 14.072502536808896 3.5346564092307693 14.104180229116588 3.58665564 Q 14.13585792142428 3.6386548707692308 14.186661767578126 3.6691371784615385 Q 14.237465613731974 3.6996194861538463 14.297234844501205 3.6996194861538463 Q 14.35819945988582 3.6996194861538463 14.412589459885819 3.668539486153846 Q 14.466979459885819 3.6374594861538463 14.488496382962742 3.5872533323076925 L 14.559024075270434 3.606379486153846 Q 14.53989792142428 3.650608716923077 14.500450229116588 3.6864702553846156 Q 14.461002536808897 3.7223317938461538 14.407807921424281 3.7420556400000002 Q 14.354613306039665 3.7617794861538463 14.29364869065505 3.7617794861538463 M 14.064134844501204 3.409141024615385 L 14.524357921424281 3.409141024615385 Q 14.519576382962743 3.3410041015384615 14.48789869065505 3.2896025630769232 Q 14.456220998347359 3.2382010246153845 14.405417152193511 3.2089141015384617 Q 14.354613306039665 3.1796271784615384 14.29364869065505 3.1796271784615384 Q 14.232684075270434 3.1796271784615384 14.182477921424281 3.2089141015384617 Q 14.132271767578127 3.2382010246153845 14.100594075270434 3.2902002553846152 Q 14.068916382962742 3.342199486153846 14.064134844501204 3.409141024615385 M 14.716187384314907 3.4617379476923076 L 14.716187384314907 3.386428716923077 L 15.065239692007214 3.386428716923077 L 15.065239692007214 3.4617379476923076 L 14.716187384314907 3.4617379476923076 M 15.777056793118993 2.9752164092307694 L 15.474624485426686 2.9752164092307694 L 15.474624485426686 3.74982564 L 15.390947562349762 3.74982564 L 15.390947562349762 2.9752164092307694 L 15.088515254657453 2.9752164092307694 L 15.088515254657453 2.901102563076923 L 15.777056793118993 2.901102563076923 L 15.777056793118993 2.9752164092307694 M 16.02030063551683 3.7617794861538463 Q 15.953359097055293 3.7617794861538463 15.896578327824523 3.736078716923077 Q 15.839797558593753 3.7103779476923076 15.798556789362983 3.6655510246153846 Q 15.757316020132215 3.6207241015384617 15.734603712439908 3.5627479476923076 Q 15.7118914047476 3.504771793846154 15.7118914047476 3.4402210246153846 Q 15.7118914047476 3.373279486153846 15.734603712439908 3.315303332307692 Q 15.757316020132215 3.2573271784615385 15.799154481670676 3.212500255384615 Q 15.840992943209137 3.167673332307692 15.897773712439907 3.141972563076923 Q 15.954554481670677 3.116271793846154 16.021496020132215 3.116271793846154 Q 16.088437558593753 3.116271793846154 16.14462063551683 3.141972563076923 Q 16.200803712439907 3.167673332307692 16.242642173978368 3.212500255384615 Q 16.28448063551683 3.2573271784615385 16.307192943209138 3.315303332307692 Q 16.329905250901447 3.373279486153846 16.329905250901447 3.4402210246153846 Q 16.329905250901447 3.504771793846154 16.307192943209138 3.5627479476923076 Q 16.28448063551683 3.6207241015384617 16.24323986628606 3.6655510246153846 Q 16.201999097055293 3.7103779476923076 16.145218327824523 3.736078716923077 Q 16.088437558593753 3.7617794861538463 16.02030063551683 3.7617794861538463 M 15.794372943209138 3.441416409230769 Q 15.794372943209138 3.510748716923077 15.824855250901447 3.567529486153846 Q 15.855337558593753 3.6243102553846156 15.906739097055292 3.6571833323076923 Q 15.95814063551683 3.6900564092307695 16.02030063551683 3.6900564092307695 Q 16.08246063551683 3.6900564092307695 16.13386217397837 3.65658564 Q 16.18526371243991 3.6231148707692307 16.216343712439908 3.565138716923077 Q 16.247423712439907 3.507162563076923 16.247423712439907 3.43902564 Q 16.247423712439907 3.3696933323076923 16.216343712439908 3.3123148707692307 Q 16.18526371243991 3.254936409230769 16.13386217397837 3.22146564 Q 16.08246063551683 3.1879948707692307 16.02030063551683 3.1879948707692307 Q 15.95814063551683 3.1879948707692307 15.907336789362985 3.222661024615385 Q 15.856532943209139 3.2573271784615385 15.825452943209138 3.3141079476923077 Q 15.794372943209138 3.370888716923077 15.794372943209138 3.441416409230769 M 16.7177725375601 3.7581933323076924 Q 16.654417152944717 3.7581933323076924 16.60062484525241 3.731894870769231 Q 16.5468325375601 3.705596409230769 16.5079825375601 3.6607694861538462 Q 16.4691325375601 3.6159425630769233 16.447615614483176 3.5585641015384617 Q 16.426098691406253 3.50118564 16.426098691406253 3.4402210246153846 Q 16.426098691406253 3.3744748707692307 16.447017922175487 3.316498716923077 Q 16.467937152944717 3.258522563076923 16.506787152944717 3.2130979476923076 Q 16.545637152944717 3.167673332307692 16.59823407602164 3.141972563076923 Q 16.650830999098563 3.116271793846154 16.71538176832933 3.116271793846154 Q 16.7954725375601 3.116271793846154 16.85464407602164 3.1569148707692305 Q 16.913815614483177 3.1975579476923075 16.954458691406256 3.2573271784615385 L 16.954458691406256 3.127030255384615 L 17.027377152944716 3.127030255384615 L 17.027377152944716 3.7522164092307695 Q 17.027377152944716 3.8382841015384614 16.986136383713948 3.89745564 Q 16.944895614483176 3.9566271784615386 16.874965614483177 3.986511793846154 Q 16.805035614483177 4.01639640923077 16.722554076021638 4.01639640923077 Q 16.61616484525241 4.01639640923077 16.550418691406254 3.9781441015384615 Q 16.4846725375601 3.939891793846154 16.44283407602164 3.8753410246153845 L 16.49304022986779 3.8358933323076925 Q 16.530097152944716 3.8944671784615386 16.591659460637025 3.9231564092307694 Q 16.65322176832933 3.95184564 16.722554076021638 3.95184564 Q 16.783518691406254 3.95184564 16.8343225375601 3.9297310246153847 Q 16.885126383713946 3.9076164092307692 16.915608691406256 3.8633871784615383 Q 16.946090999098562 3.819157947692308 16.946090999098562 3.7522164092307695 L 16.946090999098562 3.629091793846154 Q 16.910229460637023 3.68766564 16.848069460637024 3.7229294861538462 Q 16.785909460637022 3.7581933323076924 16.7177725375601 3.7581933323076924 M 16.740484845252407 3.6900564092307695 Q 16.777541768329332 3.6900564092307695 16.811610229867792 3.6769071784615384 Q 16.845678691406256 3.6637579476923077 16.874367922175484 3.641643332307692 Q 16.903057152944715 3.619528716923077 16.92218330679087 3.592034870769231 Q 16.941309460637022 3.5645410246153846 16.946090999098562 3.535851793846154 L 16.946090999098562 3.343394870769231 Q 16.928160229867792 3.2979702553846155 16.894689460637025 3.2627064092307694 Q 16.861218691406254 3.2274425630769232 16.8187825375601 3.207718716923077 Q 16.776346383713946 3.1879948707692307 16.73092176832933 3.1879948707692307 Q 16.67832484525241 3.1879948707692307 16.63708407602164 3.210109486153846 Q 16.59584330679087 3.2322241015384616 16.56775176832933 3.2686833323076923 Q 16.539660229867792 3.305142563076923 16.524120229867794 3.3505671784615387 Q 16.508580229867793 3.3959917938461537 16.508580229867793 3.441416409230769 Q 16.508580229867793 3.4916225630769233 16.526510999098562 3.5364494861538462 Q 16.54444176832933 3.581276409230769 16.576119460637024 3.6165402553846153 Q 16.607797152944716 3.6518041015384615 16.65023330679087 3.6709302553846155 Q 16.692669460637024 3.6900564092307695 16.740484845252407 3.6900564092307695 M 17.477416696965147 3.7617794861538463 Q 17.41047515850361 3.7617794861538463 17.35309669696515 3.736078716923077 Q 17.295718235426687 3.7103779476923076 17.253879773888226 3.6655510246153846 Q 17.212041312349765 3.6207241015384617 17.188731312349763 3.5621502553846156 Q 17.165421312349764 3.503576409230769 17.165421312349764 3.4366348707692307 Q 17.165421312349764 3.349371793846154 17.205466696965146 3.2764533323076925 Q 17.245512081580532 3.203534870769231 17.316039773888225 3.1599033323076924 Q 17.386567466195917 3.116271793846154 17.476221312349765 3.116271793846154 Q 17.56826592773438 3.116271793846154 17.637000543118994 3.1605010246153844 Q 17.70573515850361 3.2047302553846153 17.7451828508113 3.2770510246153846 Q 17.784630543118993 3.349371793846154 17.784630543118993 3.435439486153846 Q 17.784630543118993 3.445002563076923 17.784630543118993 3.4539679476923077 Q 17.784630543118993 3.4629333323076925 17.78343515850361 3.467714870769231 L 17.250293620042072 3.467714870769231 Q 17.256270543118994 3.5346564092307693 17.287948235426686 3.58665564 Q 17.31962592773438 3.6386548707692308 17.370429773888226 3.6691371784615385 Q 17.42123362004207 3.6996194861538463 17.4810028508113 3.6996194861538463 Q 17.541967466195917 3.6996194861538463 17.59635746619592 3.668539486153846 Q 17.650747466195917 3.6374594861538463 17.67226438927284 3.5872533323076925 L 17.742792081580532 3.606379486153846 Q 17.72366592773438 3.650608716923077 17.684218235426687 3.6864702553846156 Q 17.644770543118995 3.7223317938461538 17.59157592773438 3.7420556400000002 Q 17.538381312349763 3.7617794861538463 17.477416696965147 3.7617794861538463 M 17.2479028508113 3.409141024615385 L 17.70812592773438 3.409141024615385 Q 17.70334438927284 3.3410041015384615 17.671666696965147 3.2896025630769232 Q 17.639989004657455 3.2382010246153845 17.58918515850361 3.2089141015384617 Q 17.538381312349763 3.1796271784615384 17.477416696965147 3.1796271784615384 Q 17.416452081580534 3.1796271784615384 17.36624592773438 3.2089141015384617 Q 17.316039773888225 3.2382010246153845 17.284362081580532 3.2902002553846152 Q 17.25268438927284 3.342199486153846 17.2479028508113 3.409141024615385 M 18.20477263070914 3.719941024615385 Q 18.195209553786064 3.7235271784615387 18.174888015324523 3.7330902553846155 Q 18.154566476862986 3.7426533323076923 18.125877246093754 3.74982564 Q 18.097188015324523 3.756997947692308 18.063717246093756 3.756997947692308 Q 18.029051092247602 3.756997947692308 17.998568784555292 3.743848716923077 Q 17.968086476862986 3.730699486153846 17.950155707632216 3.703803332307692 Q 17.932224938401447 3.6769071784615384 17.932224938401447 3.6374594861538463 L 17.932224938401447 3.1915810246153846 L 17.846157246093757 3.1915810246153846 L 17.846157246093757 3.127030255384615 L 17.932224938401447 3.127030255384615 L 17.932224938401447 2.9166425630769233 L 18.0135110922476 2.9166425630769233 L 18.0135110922476 3.127030255384615 L 18.156957246093754 3.127030255384615 L 18.156957246093754 3.1915810246153846 L 18.0135110922476 3.1915810246153846 L 18.0135110922476 3.6147471784615384 Q 18.01590186147837 3.6482179476923076 18.038016476862985 3.664953332307692 Q 18.0601310922476 3.681688716923077 18.088820323016833 3.681688716923077 Q 18.1222910922476 3.681688716923077 18.149784938401446 3.670332563076923 Q 18.177278784555295 3.6589764092307693 18.183255707632217 3.654194870769231 L 18.20477263070914 3.719941024615385 M 18.83177812725361 3.74982564 L 18.750491973407456 3.74982564 L 18.750491973407456 3.401968716923077 Q 18.750491973407456 3.296774870769231 18.713435050330535 3.2435802553846154 Q 18.67637812725361 3.19038564 18.607045819561304 3.19038564 Q 18.56162120417669 3.19038564 18.516794281099763 3.21369564 Q 18.47196735802284 3.23700564 18.43789889648438 3.2770510246153846 Q 18.403830434945917 3.317096409230769 18.389485819561305 3.368497947692308 L 18.389485819561305 3.74982564 L 18.30819966571515 3.74982564 L 18.30819966571515 2.8771948707692308 L 18.389485819561305 2.8771948707692308 L 18.389485819561305 3.26808564 Q 18.426542742638226 3.1987533323076924 18.49288658879207 3.157512563076923 Q 18.559230434945917 3.116271793846154 18.63453966571515 3.116271793846154 Q 18.688331973407458 3.116271793846154 18.725986588792072 3.135397947692308 Q 18.763641204176686 3.1545241015384615 18.786951204176688 3.190983332307692 Q 18.810261204176687 3.2274425630769232 18.82101966571515 3.27585564 Q 18.83177812725361 3.324268716923077 18.83177812725361 3.3852333323076924 L 18.83177812725361 3.74982564 M 19.2758728508113 3.7617794861538463 Q 19.208931312349762 3.7617794861538463 19.151552850811303 3.736078716923077 Q 19.09417438927284 3.7103779476923076 19.05233592773438 3.6655510246153846 Q 19.01049746619592 3.6207241015384617 18.987187466195916 3.5621502553846156 Q 18.963877466195918 3.503576409230769 18.963877466195918 3.4366348707692307 Q 18.963877466195918 3.349371793846154 19.0039228508113 3.2764533323076925 Q 19.043968235426686 3.203534870769231 19.114495927734378 3.1599033323076924 Q 19.18502362004207 3.116271793846154 19.274677466195918 3.116271793846154 Q 19.366722081580534 3.116271793846154 19.435456696965147 3.1605010246153844 Q 19.504191312349764 3.2047302553846153 19.543639004657454 3.2770510246153846 Q 19.583086696965147 3.349371793846154 19.583086696965147 3.435439486153846 Q 19.583086696965147 3.445002563076923 19.583086696965147 3.4539679476923077 Q 19.583086696965147 3.4629333323076925 19.581891312349764 3.467714870769231 L 19.048749773888225 3.467714870769231 Q 19.054726696965147 3.5346564092307693 19.08640438927284 3.58665564 Q 19.118082081580532 3.6386548707692308 19.16888592773438 3.6691371784615385 Q 19.219689773888224 3.6996194861538463 19.279459004657454 3.6996194861538463 Q 19.34042362004207 3.6996194861538463 19.394813620042072 3.668539486153846 Q 19.44920362004207 3.6374594861538463 19.470720543118993 3.5872533323076925 L 19.541248235426686 3.606379486153846 Q 19.522122081580534 3.650608716923077 19.48267438927284 3.6864702553846156 Q 19.443226696965148 3.7223317938461538 19.390032081580532 3.7420556400000002 Q 19.336837466195917 3.7617794861538463 19.2758728508113 3.7617794861538463 M 19.046359004657454 3.409141024615385 L 19.506582081580532 3.409141024615385 Q 19.501800543118993 3.3410041015384615 19.4701228508113 3.2896025630769232 Q 19.438445158503608 3.2382010246153845 19.387641312349764 3.2089141015384617 Q 19.336837466195917 3.1796271784615384 19.2758728508113 3.1796271784615384 Q 19.214908235426687 3.1796271784615384 19.164702081580533 3.2089141015384617 Q 19.114495927734378 3.2382010246153845 19.082818235426686 3.2902002553846152 Q 19.051140543118994 3.342199486153846 19.046359004657454 3.409141024615385 M 20.021165390625 3.1987533323076924 Q 19.93987923677885 3.2011441015384614 19.87831692908654 3.244177947692308 Q 19.81675462139423 3.287211793846154 19.791651544471158 3.3625210246153845 L 19.791651544471158 3.74982564 L 19.710365390625004 3.74982564 L 19.710365390625004 3.127030255384615 L 19.786870006009618 3.127030255384615 L 19.786870006009618 3.2764533323076925 Q 19.819145390625003 3.2107071784615386 19.87234000600962 3.1700641015384616 Q 19.925534621394235 3.1294210246153846 19.985303852163465 3.1246394861538462 Q 19.99725769831731 3.1234441015384613 20.006223082932696 3.1234441015384613 Q 20.01518846754808 3.1234441015384613 20.021165390625 3.1246394861538462 L 20.021165390625 3.1987533323076924" fill="#d56a34" fill-rule="nonzero"></path></g></g><defs><clipPath id="SvgjsClipPath1001"><path d=" M -7.185317772810624 -1.5177460664053117 h 6.7853177728106235 v 6.7853177728106235 h -6.7853177728106235 Z"></path></clipPath><clipPath id="SvgjsClipPath1000e73dce01-6dda-4968-96ae-78fdd2da89fd"><path d=" M -7.185317772810624 -1.4906047953140693 L -0.40000000000000036 -1.4906047953140693 L -0.40000000000000036 5.24043043531407 L -7.185317772810624 5.24043043531407 Z"></path></clipPath></defs></svg>